<?xml version="1.0" encoding="UTF-8"?>
<svg width="64" height="64" viewBox="0 0 64 64" fill="none" xmlns="http://www.w3.org/2000/svg">
  <rect width="64" height="64" rx="12" fill="#007AFF"/>
  <path d="M32 12C20.96 12 12 20.96 12 32s8.96 20 20 20 20-8.96 20-20S43.04 12 32 12zm0 36c-8.84 0-16-7.16-16-16s7.16-16 16-16 16 7.16 16 16-7.16 16-16 16z" fill="white"/>
  <path d="M32 20c-6.63 0-12 5.37-12 12s5.37 12 12 12 12-5.37 12-12-5.37-12-12-12zm0 20c-4.42 0-8-3.58-8-8s3.58-8 8-8 8 3.58 8 8-3.58 8-8 8z" fill="white"/>
  <circle cx="32" cy="32" r="4" fill="white"/>
</svg>